<svg width="41" height="41" viewBox="0 0 41 41" fill="none" xmlns="http://www.w3.org/2000/svg">
<g clip-path="url(#clip0_26_32)">
<path d="M37.187 26.158L40.877 12.259C40.959 11.972 41 11.685 41 11.398C41 9.51199 39.483 7.95399 37.597 7.95399H6.724L5.125 1.88599C5.002 1.43499 4.592 1.10699 4.141 1.10699H1.025C0.451 1.14799 0 1.59899 0 2.17299C0 2.74699 0.451 3.19799 1.025 3.19799H3.362L10.824 31.324C11.275 33.005 12.792 34.194 14.555 34.194H15.252C14.965 34.727 14.801 35.342 14.801 35.998C14.801 38.13 16.523 39.852 18.655 39.852C20.787 39.852 22.509 38.13 22.509 35.998C22.509 35.342 22.345 34.727 22.058 34.194H28.495C28.208 34.727 28.044 35.342 28.044 35.998C28.044 38.13 29.766 39.852 31.898 39.852C34.03 39.852 35.752 38.13 35.752 35.998C35.752 35.342 35.588 34.727 35.301 34.194H36.736C37.31 34.194 37.761 33.743 37.761 33.169C37.761 32.595 37.31 32.144 36.736 32.144H14.555C13.735 32.144 13.038 31.611 12.833 30.791L12.382 29.069H33.415C35.178 29.069 36.736 27.839 37.187 26.158ZM20.459 35.998C20.459 37.023 19.639 37.802 18.655 37.802C17.671 37.802 16.851 36.982 16.851 35.998C16.851 35.014 17.671 34.194 18.655 34.194C19.639 34.194 20.459 35.014 20.459 35.998ZM33.702 35.998C33.702 37.023 32.882 37.802 31.898 37.802C30.914 37.802 30.094 36.982 30.094 35.998C30.094 35.014 30.914 34.194 31.898 34.194C32.923 34.194 33.702 35.014 33.702 35.998ZM37.597 10.004C37.72 10.004 37.843 10.004 37.966 10.045C38.704 10.25 39.114 10.988 38.95 11.726L35.26 25.625C35.055 26.445 34.276 27.019 33.415 27.019H11.808L7.298 10.004H37.597ZM13.858 23.493L11.767 13.94C11.644 13.366 12.013 12.833 12.587 12.751C13.12 12.628 13.653 12.997 13.776 13.489L15.908 23.083C16.031 23.616 15.703 24.19 15.129 24.313H14.883C14.391 24.313 13.981 23.985 13.858 23.493ZM19.516 23.37L18.819 13.776C18.778 13.202 19.188 12.71 19.762 12.669C20.336 12.628 20.828 13.038 20.869 13.612L21.566 23.206C21.607 23.78 21.197 24.272 20.623 24.313H20.541C20.008 24.354 19.557 23.903 19.516 23.37ZM25.174 23.247L25.871 13.653C25.912 13.079 26.404 12.669 26.978 12.71C27.552 12.751 27.962 13.243 27.921 13.817L27.224 23.37C27.183 23.903 26.732 24.313 26.199 24.313H26.117C25.584 24.272 25.133 23.821 25.174 23.247ZM30.873 23.083L33.005 13.489C33.128 12.956 33.661 12.587 34.235 12.71C34.768 12.833 35.137 13.366 35.014 13.94L32.882 23.534C32.759 23.985 32.349 24.354 31.898 24.313C31.816 24.313 31.734 24.313 31.693 24.272C31.078 24.19 30.75 23.657 30.873 23.083Z" fill="black"/>
</g>
<defs>
<clipPath id="clip0_26_32">
<rect width="41" height="41" fill="white"/>
</clipPath>
</defs>
</svg>
